<?xml version="1.0" encoding="utf-8"?>
<!-- Generator: Adobe Illustrator 16.0.0, SVG Export Plug-In . SVG Version: 6.00 Build 0)  -->
<!DOCTYPE svg PUBLIC "-//W3C//DTD SVG 1.1//EN" "http://www.w3.org/Graphics/SVG/1.1/DTD/svg11.dtd">
<svg version="1.1" xmlns="http://www.w3.org/2000/svg" xmlns:xlink="http://www.w3.org/1999/xlink" x="0px" y="0px" width="1024px"
	 height="215.596px" viewBox="0 0 1024 215.596" enable-background="new 0 0 1024 215.596" xml:space="preserve">
<g id="Layer_1">
</g>
<g id="Layer_2">
	<path fill="#FFEFD4" d="M1107-90H-40V71h31.145l-1.39,0.402c0,0,5.263,67.543,40.351,66.667s40.351-60.526,40.351-60.526
		s3.509,13.158,15.79,14.913s16.667-15.79,16.667-15.79S116,109.49,155.474,106.858s44.808-34.579,44.808-34.579
		s16.105,24.245,31.579,26.316s21.93-9.649,21.93-9.649s14.035,10.526,30.702,8.772s24.561-16.667,24.561-16.667
		s25.368,42.473,70.982,39.841c36.241-2.091,62.49-30.006,72.44-49.893c0,0,22.025,22.414,35.525,22.332s18.422-7.018,18.422-7.018
		s7.896,24.562,32.456,26.316s50-26.316,50-26.316s14.035,8.772,33.333,7.018C638.606,91.841,658.395,71,658.395,71
		s11.991,22.7,35.676,22.7s32.526-20.543,32.526-20.543s6.596,28.542,28,30.192s32.456-20.176,32.456-20.176
		s15.859,15.422,35.965,10.526s20.089-12.663,23.627-22.7c0,0,22.279,18.915,43.917,18.314c20.62-0.573,29.429-6.564,37.882-18.314
		c0,0,20.084,34.613,55.101,36.735s41.536-18.613,56.141-38.597L1107,71V-90z"/>
</g>
</svg>
